<svg width="16" height="16" viewBox="0 0 16 16" fill="none" xmlns="http://www.w3.org/2000/svg">
<path fill-rule="evenodd" clip-rule="evenodd" d="M2.68687 2.66685C2.14704 3.20667 1.83331 4.05703 1.83331 5.31329V8.64663C1.83331 10.2702 2.16242 11.0827 2.66257 11.5203C3.17922 11.9724 4.00882 12.1466 5.33331 12.1466H5.66665C5.8572 12.1466 6.04079 12.2047 6.18693 12.2778C6.3311 12.3499 6.48837 12.4614 6.60175 12.6157L7.59997 13.9466C7.73941 14.1326 7.88912 14.1866 7.99998 14.1866C8.11084 14.1866 8.26055 14.1326 8.39999 13.9466L9.39999 12.6133L9.40191 12.6108C9.62166 12.3216 9.96799 12.1466 10.3333 12.1466H10.6666C11.9229 12.1466 12.7733 11.8329 13.3131 11.2931C13.8529 10.7532 14.1666 9.90289 14.1666 8.64663V5.31329C14.1666 4.05703 13.8529 3.20667 13.3131 2.66685C12.7733 2.12702 11.9229 1.81329 10.6666 1.81329H5.33331C4.07705 1.81329 3.22669 2.12702 2.68687 2.66685ZM1.97976 1.95974C2.77327 1.16623 3.92291 0.813293 5.33331 0.813293H10.6666C12.0771 0.813293 13.2267 1.16623 14.0202 1.95974C14.8137 2.75325 15.1666 3.90289 15.1666 5.31329V8.64663C15.1666 10.057 14.8137 11.2067 14.0202 12.0002C13.2267 12.7937 12.0771 13.1466 10.6666 13.1466H10.3333C10.2856 13.1466 10.2324 13.1713 10.1988 13.2149L10.1981 13.2159L9.19999 14.5466C8.89943 14.9474 8.46912 15.1866 7.99998 15.1866C7.53084 15.1866 7.10053 14.9474 6.79997 14.5466L5.79821 13.211C5.79686 13.2096 5.79371 13.2067 5.78825 13.2024C5.77664 13.1932 5.76001 13.1823 5.73968 13.1722C5.7194 13.162 5.69994 13.1548 5.68401 13.1506C5.67233 13.1474 5.66494 13.1466 5.66494 13.1466H5.33331C3.99114 13.1466 2.82074 12.9875 2.00406 12.2729C1.17087 11.5439 0.833313 10.3564 0.833313 8.64663V5.31329C0.833313 3.90289 1.18625 2.75325 1.97976 1.95974Z" fill="#FAFAFA"/>
<path fill-rule="evenodd" clip-rule="evenodd" d="M5.68687 5.44643C5.88213 5.6417 5.88213 5.95828 5.68687 6.15354L4.70709 7.13332L5.68687 8.1131C5.88213 8.30836 5.88213 8.62495 5.68687 8.82021C5.4916 9.01547 5.17502 9.01547 4.97976 8.82021L3.64643 7.48688C3.45116 7.29161 3.45116 6.97503 3.64643 6.77977L4.97976 5.44643C5.17502 5.25117 5.4916 5.25117 5.68687 5.44643Z" fill="#FAFAFA"/>
<path fill-rule="evenodd" clip-rule="evenodd" d="M10.3131 5.44643C10.5084 5.25117 10.8249 5.25117 11.0202 5.44643L12.3535 6.77977C12.5488 6.97503 12.5488 7.29161 12.3535 7.48688L11.0202 8.82021C10.8249 9.01547 10.5084 9.01547 10.3131 8.82021C10.1178 8.62495 10.1178 8.30836 10.3131 8.1131L11.2929 7.13332L10.3131 6.15354C10.1178 5.95828 10.1178 5.6417 10.3131 5.44643Z" fill="#FAFAFA"/>
<path fill-rule="evenodd" clip-rule="evenodd" d="M8.86384 5.12051C9.1176 5.22941 9.23503 5.52341 9.12612 5.77717L7.79278 8.88386C7.68388 9.13762 7.38988 9.25505 7.13612 9.14614C6.88236 9.03723 6.76493 8.74323 6.87384 8.48947L8.20718 5.38278C8.31608 5.12902 8.61008 5.0116 8.86384 5.12051Z" fill="#FAFAFA"/>
</svg>
