<svg width="24" height="24" viewBox="0 0 24 24" fill="none" xmlns="http://www.w3.org/2000/svg">
<path d="M22 14.0021H21C21 10.1321 17.87 7.00205 14 7.00205H13V5.73205C13.3041 5.55647 13.5566 5.30391 13.7322 4.99978C13.9077 4.69564 14.0001 4.35065 14 3.99949C13.9999 3.64833 13.9074 3.30338 13.7317 2.99933C13.556 2.69529 13.3033 2.44286 12.9991 2.26744C12.6949 2.09201 12.3499 1.99978 11.9987 2C11.6476 2.00023 11.3026 2.0929 10.9987 2.26872C10.6947 2.44453 10.4424 2.69728 10.2671 3.00155C10.0917 3.30583 9.99964 3.65089 10 4.00205C10 4.74205 10.4 5.39205 11 5.73205V7.00205H10C6.13 7.00205 3 10.1321 3 14.0021H2C1.45 14.0021 1 14.4521 1 15.0021V18.0021C1 18.5521 1.45 19.0021 2 19.0021H3V20.0021C3 20.5325 3.21071 21.0412 3.58579 21.4163C3.96086 21.7913 4.46957 22.0021 5 22.0021H19C20.11 22.0021 21 21.1121 21 20.0021V19.0021H22C22.55 19.0021 23 18.5521 23 18.0021V15.0021C23 14.4521 22.55 14.0021 22 14.0021ZM21 17.0021H19V20.0021H5V17.0021H3V16.0021H5V14.0021C5 11.2421 7.24 9.00205 10 9.00205H14C16.76 9.00205 19 11.2421 19 14.0021V16.0021H21V17.0021ZM8.5 13.5021L10.86 15.8621L9.68 17.0421L8.5 15.8621L7.32 17.0421L6.14 15.8621L8.5 13.5021ZM15.5 13.5021L17.86 15.8621L16.68 17.0421L15.5 15.8621L14.32 17.0421L13.14 15.8621L15.5 13.5021Z" fill="#CCCCCC"/>
</svg>
