<svg width="48" height="48" viewBox="0 0 48 48" fill="none" xmlns="http://www.w3.org/2000/svg">
<path fill-rule="evenodd" clip-rule="evenodd" d="M8.06066 8.0006C6.44118 9.62008 5.5 12.1712 5.5 15.9399V25.9399C5.5 30.8106 6.48733 33.2482 7.98776 34.5611C9.53773 35.9173 12.0265 36.4399 16 36.4399H17C17.5717 36.4399 18.1224 36.6141 18.5609 36.8334C18.9934 37.0496 19.4652 37.3842 19.8053 37.8471L22.8 41.84C23.2183 42.3978 23.6674 42.56 24 42.56C24.3326 42.56 24.7817 42.3978 25.2 41.84L28.2 37.84L28.2058 37.8324C28.8651 36.9649 29.904 36.4399 31 36.4399H32C35.7688 36.4399 38.3199 35.4988 39.9393 33.8793C41.5588 32.2598 42.5 29.7087 42.5 25.9399V15.9399C42.5 12.1712 41.5588 9.62008 39.9393 8.0006C38.3199 6.38112 35.7688 5.43994 32 5.43994H16C12.2312 5.43994 9.68014 6.38112 8.06066 8.0006ZM5.93934 5.87928C8.31986 3.49876 11.7688 2.43994 16 2.43994H32C36.2312 2.43994 39.6801 3.49876 42.0607 5.87928C44.4412 8.2598 45.5 11.7087 45.5 15.9399V25.9399C45.5 30.1712 44.4412 33.6201 42.0607 36.0006C39.6801 38.3811 36.2312 39.4399 32 39.4399H31C30.857 39.4399 30.6972 39.514 30.5963 39.6449L30.5943 39.6476L27.6 43.64C26.6983 44.8422 25.4074 45.56 24 45.56C22.5926 45.56 21.3017 44.8422 20.4 43.64L17.3947 39.633C17.3907 39.629 17.3812 39.62 17.3648 39.6071C17.33 39.5796 17.2801 39.5471 17.2191 39.5166C17.1583 39.4862 17.0999 39.4646 17.0521 39.4517C17.0171 39.4423 16.9949 39.4399 16.9949 39.4399H16C11.9735 39.4399 8.46227 38.9626 6.01224 36.8188C3.51267 34.6317 2.5 31.0693 2.5 25.9399V15.9399C2.5 11.7087 3.55882 8.2598 5.93934 5.87928Z" fill="#CCCCCC"/>
<path fill-rule="evenodd" clip-rule="evenodd" d="M17.0607 16.3394C17.6464 16.9252 17.6464 17.8749 17.0607 18.4607L14.1213 21.4L17.0607 24.3394C17.6464 24.9251 17.6464 25.8749 17.0607 26.4607C16.4749 27.0465 15.5251 27.0465 14.9393 26.4607L10.9393 22.4607C10.3536 21.8749 10.3536 20.9251 10.9393 20.3394L14.9393 16.3394C15.5251 15.7536 16.4749 15.7536 17.0607 16.3394Z" fill="#CCCCCC"/>
<path fill-rule="evenodd" clip-rule="evenodd" d="M30.9393 16.3394C31.5251 15.7536 32.4749 15.7536 33.0607 16.3394L37.0607 20.3394C37.6464 20.9251 37.6464 21.8749 37.0607 22.4607L33.0607 26.4607C32.4749 27.0465 31.5251 27.0465 30.9393 26.4607C30.3536 25.8749 30.3536 24.9251 30.9393 24.3394L33.8787 21.4L30.9393 18.4607C30.3536 17.8749 30.3536 16.9252 30.9393 16.3394Z" fill="#CCCCCC"/>
<path fill-rule="evenodd" clip-rule="evenodd" d="M26.5916 15.3616C27.3529 15.6883 27.7051 16.5703 27.3784 17.3316L23.3784 26.6516C23.0517 27.4129 22.1697 27.7652 21.4084 27.4385C20.6471 27.1117 20.2949 26.2297 20.6216 25.4685L24.6216 16.1484C24.9483 15.3871 25.8303 15.0349 26.5916 15.3616Z" fill="#CCCCCC"/>
</svg>
